<?xml version="1.0" standalone="no"?>
<!DOCTYPE svg PUBLIC "-//W3C//DTD SVG 20010904//EN"
 "http://www.w3.org/TR/2001/REC-SVG-20010904/DTD/svg10.dtd">
<svg version="1.0" xmlns="http://www.w3.org/2000/svg"
 width="512.000000pt" height="512.000000pt" viewBox="0 0 512.000000 512.000000"
 preserveAspectRatio="xMidYMid meet">
<metadata>
Created by potrace 1.11, written by Peter Selinger 2001-2013
</metadata>
<g transform="translate(0.000000,512.000000) scale(0.100000,-0.100000)"
fill="#000000" stroke="none">
<path d="M484 5044 c0 -47 3 -69 8 -59 5 8 7 19 4 24 -7 11 19 22 37 15 9 -3
13 4 12 22 0 15 -5 29 -11 31 -7 2 -11 -2 -10 -9 0 -7 -3 -14 -9 -15 -5 -2
-10 3 -10 10 0 6 -4 15 -10 19 -11 8 -11 8 45 12 19 2 44 6 55 10 14 6 16 5 6
-2 -9 -7 -10 -12 -2 -16 6 -4 14 -1 17 7 2 7 12 14 20 14 12 0 9 -5 -7 -18
-15 -11 -28 -14 -33 -8 -6 5 -15 9 -20 9 -6 0 1 -11 15 -24 20 -18 25 -32 22
-53 -2 -15 -5 -33 -5 -38 -1 -6 -18 -10 -38 -10 -22 0 -36 4 -33 10 2 6 -6 11
-17 11 -11 0 -19 -5 -16 -11 5 -14 -4 -15 -106 -14 l-78 0 0 -79 c0 -43 -3
-82 -7 -85 -3 -4 -18 3 -32 15 -15 14 -20 16 -12 5 13 -16 12 -18 -10 -15 -13
2 -30 7 -38 12 -10 7 -12 5 -6 -3 5 -9 -1 -11 -24 -8 -17 3 -31 2 -31 -1 0 -4
-1 -60 -2 -124 -1 -64 -6 -114 -10 -112 -10 6 -11 -10 -1 -20 4 -3 8 -17 10
-29 2 -17 1 -19 -6 -7 -5 8 -7 18 -5 22 6 10 -10 11 -19 1 -4 -3 -2 -12 3 -18
6 -7 7 -20 4 -30 -5 -13 -9 -14 -15 -3 -7 10 -9 11 -9 0 0 -8 -5 -10 -12 -5
-7 4 -17 8 -22 8 -32 0 -5 44 31 49 20 3 32 36 13 36 -6 0 -8 -5 -4 -12 4 -7
3 -8 -5 -4 -6 4 -24 -6 -42 -23 -17 -17 -35 -28 -41 -25 -6 4 -8 1 -6 -7 3 -8
11 -13 17 -11 6 1 11 -2 11 -8 0 -13 -17 -13 -25 0 -3 6 -10 10 -15 10 -6 0
-10 -738 -10 -1856 0 -1474 3 -1860 12 -1872 11 -13 11 -14 0 -8 -10 6 -12 -5
-11 -49 1 -30 7 -59 13 -63 18 -11 66 -10 66 2 0 6 4 4 9 -3 5 -8 6 -22 3 -30
-11 -23 -9 -54 4 -58 9 -3 13 19 14 82 1 16 3 17 10 5 8 -12 10 -12 10 -1 0
11 3 11 15 1 14 -11 14 -15 -2 -33 -17 -20 -17 -20 0 -14 11 4 16 3 12 -4 -4
-6 -14 -8 -22 -5 -10 4 -13 2 -10 -8 3 -7 0 -19 -6 -25 -8 -8 -8 -11 1 -11 7
0 15 7 18 15 8 19 21 19 21 0 0 -8 -5 -11 -10 -8 -6 4 -8 0 -4 -10 9 -23 -2
-47 -18 -41 -7 3 -15 1 -19 -4 -7 -11 25 -12 40 -1 7 6 11 -18 12 -79 2 -63 7
-91 18 -102 13 -13 14 -13 8 4 -6 16 -5 17 14 7 12 -7 22 -9 22 -5 0 4 10 -1
22 -12 20 -17 21 -17 9 -1 -13 16 -12 18 10 15 13 -2 30 -7 38 -12 10 -6 12
-5 7 2 -4 7 -2 12 3 12 10 0 15 -55 11 -126 -1 -33 -1 -33 146 -38 31 -1 40
-4 36 -15 -3 -9 -1 -12 5 -8 6 4 25 -7 42 -24 18 -17 36 -27 42 -23 8 4 9 3 5
-4 -4 -7 -2 -12 4 -12 19 0 7 33 -13 36 -24 3 -49 24 -44 38 4 13 65 17 73 4
3 -5 1 -15 -5 -22 -6 -7 -8 -16 -4 -19 9 -10 25 -9 19 1 -2 4 -1 14 3 21 7 10
9 9 14 -2 3 -9 -1 -21 -9 -27 -8 -7 -14 -17 -14 -22 0 -6 7 -5 15 2 9 8 15 8
15 2 0 -6 -6 -12 -12 -15 -10 -3 -10 -7 -2 -18 9 -11 8 -17 -3 -28 -13 -12
-14 -11 -8 10 7 20 6 22 -7 12 -11 -10 -17 -10 -26 -1 -9 9 -12 9 -12 0 0 -6
8 -15 17 -21 14 -8 13 -9 -8 -8 -20 2 -24 7 -21 22 2 15 -2 21 -16 22 -20 2
-26 -26 -8 -39 5 -3 -3 -5 -17 -5 -15 1 -27 4 -28 7 -4 18 -5 73 -2 62 3 -6
10 -9 15 -6 7 4 8 2 4 -4 -4 -7 -3 -12 3 -12 22 0 20 21 -3 31 -20 9 -23 15
-13 23 7 6 10 10 8 9 -2 -2 -9 1 -16 7 -8 7 -11 -9 -12 -60 l0 -68 1929 -2
c1239 0 1927 3 1924 9 -4 5 -2 13 4 16 6 4 9 1 8 -7 -4 -16 119 -25 135 -9 6
6 16 11 22 11 5 0 3 -5 -5 -10 -12 -7 -10 -9 8 -7 23 1 29 12 12 22 -8 5 -7
11 1 21 6 8 9 17 6 20 -3 3 -12 -3 -19 -15 -13 -22 -33 -27 -42 -12 -3 5 2 8
11 7 9 0 18 5 21 13 3 8 0 11 -6 7 -6 -3 -14 -1 -18 5 -4 7 -3 9 4 5 6 -3 13
-2 17 4 3 5 1 10 -6 10 -7 0 -9 3 -6 7 4 3 1 13 -6 22 -11 14 -10 14 6 2 18
-15 24 -2 6 16 -8 8 -7 13 2 18 7 5 10 4 6 -2 -4 -5 6 -10 23 -10 16 0 27 3
25 7 -2 4 2 7 10 7 19 0 19 -13 0 -21 -8 -3 -15 -11 -15 -18 0 -9 3 -9 11 -1
6 6 18 9 25 6 10 -3 12 0 8 10 -3 8 -1 18 5 22 7 4 8 -1 4 -12 -6 -16 -4 -16
16 2 13 11 25 19 27 18 2 -2 7 -3 12 -2 4 1 22 0 41 -1 25 -1 31 1 25 12 -5 9
-2 8 12 -2 10 -9 26 -15 34 -14 8 1 22 2 31 3 12 1 14 9 11 32 -4 25 -2 30 9
25 9 -5 8 -2 -2 6 -9 8 -13 22 -10 36 7 27 18 27 46 4 20 -17 20 -17 1 5 -10
13 -22 20 -27 17 -4 -2 -13 4 -18 15 -10 17 -7 19 29 23 22 2 41 0 41 -4 1 -5
2 -21 3 -37 0 -16 4 -32 7 -35 3 -4 5 12 4 34 -2 35 1 40 20 40 11 0 27 -6 34
-13 9 -8 12 -8 7 0 -3 6 -1 13 5 15 7 2 12 36 13 88 1 65 4 84 16 87 13 4 13
3 0 -6 -12 -8 -11 -10 8 -8 23 1 29 12 12 22 -8 5 -7 11 1 21 6 8 9 17 6 20
-3 3 -12 -3 -19 -15 -7 -12 -17 -21 -22 -21 -6 0 -5 5 2 12 16 16 15 31 0 22
-9 -5 -9 -2 1 9 7 9 9 17 4 17 -5 0 -10 7 -10 15 0 8 4 12 9 9 11 -7 10 10 -2
22 -6 6 -5 15 1 24 9 13 10 13 6 -1 -4 -12 2 -16 23 -16 15 0 27 5 26 11 -2 6
-1 8 1 3 3 -4 9 -5 14 -1 5 3 9 1 9 -4 0 -6 -7 -12 -15 -16 -8 -3 -15 -11 -15
-18 0 -9 3 -9 11 -1 6 6 17 9 24 7 13 -5 14 23 2 43 -4 6 -2 15 4 19 7 4 9 3
5 -4 -3 -6 -2 -13 3 -17 6 -3 7 -13 4 -23 -6 -15 -5 -15 10 -3 9 7 14 18 10
24 -4 6 -1 7 6 3 9 -6 8 -13 -6 -29 -17 -20 -17 -20 2 -14 19 7 19 6 2 -7 -9
-7 -29 -12 -43 -10 -16 1 -24 -2 -21 -9 4 -13 34 -16 58 -5 10 4 16 2 16 -7 0
-7 -7 -11 -16 -8 -12 3 -11 0 3 -11 11 -9 17 -18 15 -21 -3 -3 -15 4 -27 15
-26 25 -30 25 -28 3 0 -10 -5 -17 -11 -16 -7 2 -13 -2 -13 -7 0 -13 27 -13 35
0 4 6 13 5 25 -2 14 -9 16 -14 7 -20 -7 -4 -16 -8 -22 -8 -5 0 -4 4 4 9 9 6
10 11 2 15 -6 4 -14 1 -17 -8 -3 -8 -12 -12 -19 -10 -7 3 -15 1 -18 -3 -3 -5
16 -9 43 -9 l49 -1 0 2079 c0 1743 -2 2076 -13 2065 -8 -6 -12 -16 -9 -20 3
-4 -7 -17 -21 -28 -15 -12 -25 -28 -24 -37 2 -10 -3 -16 -9 -15 -7 2 -13 -2
-13 -7 0 -13 23 -13 35 -1 6 6 17 4 29 -5 11 -8 15 -14 9 -14 -7 0 -15 5 -18
10 -7 12 -25 4 -25 -11 0 -6 4 -8 8 -5 4 2 14 1 21 -3 10 -7 9 -9 -2 -14 -9
-3 -21 1 -27 9 -15 17 -34 19 -24 2 4 -7 3 -8 -4 -4 -6 4 -21 2 -33 -5 -17 -9
-20 -8 -14 2 6 8 4 11 -6 7 -11 -4 -15 2 -14 22 0 16 3 26 7 23 10 -5 10 11 1
21 -10 10 -11 46 -1 40 11 -7 10 10 -1 22 -6 5 7 9 37 10 26 0 41 -1 34 -3 -6
-3 -9 -10 -6 -15 4 -7 2 -8 -4 -4 -7 4 -12 3 -12 -3 0 -22 21 -20 31 3 9 20
15 23 23 13 6 -7 10 -10 9 -8 -2 2 2 10 8 17 8 10 1 12 -30 10 -23 -2 -41 0
-41 4 0 4 -13 6 -30 4 l-30 -4 0 80 c0 64 -3 80 -15 80 -25 0 -29 1 -44 13
-12 10 -13 9 -6 -2 6 -11 3 -13 -13 -9 -12 4 -24 2 -27 -2 -11 -18 -49 7 -52
34 -3 20 0 26 8 20 8 -5 9 -3 3 7 -5 8 -10 25 -12 38 -3 22 -1 23 15 10 10 -7
7 0 -7 15 -14 16 -19 26 -11 21 10 -5 12 -4 7 3 -4 8 -35 12 -79 12 -87 -1
-100 2 -123 20 -16 14 -17 13 -11 -3 4 -11 3 -16 -4 -12 -6 4 -8 14 -5 22 4
10 2 13 -8 10 -7 -3 -19 0 -25 6 -8 8 -11 8 -11 -1 0 -7 7 -15 15 -18 19 -8
19 -21 0 -21 -8 0 -12 3 -10 7 2 4 -9 7 -25 7 -16 0 -27 -4 -24 -9 9 -14 -3
-9 -16 8 -11 12 -11 15 0 12 7 -2 15 3 18 11 2 8 0 11 -6 7 -6 -3 -13 -2 -17
4 -4 6 -12 7 -18 4 -7 -4 -8 -3 -4 2 5 5 13 10 18 10 5 1 15 2 22 3 7 1 4 8
-8 18 -16 13 -17 15 -2 10 20 -7 22 4 5 21 -7 7 -8 12 -2 12 5 0 15 -9 22 -21
7 -12 16 -18 19 -15 3 3 0 12 -6 20 -8 10 -9 16 -1 21 5 3 10 10 10 14 0 12
-33 10 -49 -3 -11 -8 -13 -8 -7 1 6 10 -399 13 -1991 12 l-1998 0 -1 -75z
m306 62 c0 -3 -4 -8 -10 -11 -5 -3 -10 -1 -10 4 0 6 5 11 10 11 6 0 10 -2 10
-4z m-124 -42 c1 -9 0 -13 -4 -10 -3 4 -7 14 -8 22 -1 9 0 13 4 10 3 -4 7 -14
8 -22z m69 16 c-3 -5 -12 -10 -18 -10 -7 0 -6 4 3 10 19 12 23 12 15 0z m-98
-22 c2 -17 0 -19 -7 -8 -5 8 -6 18 -4 22 8 12 10 10 11 -14z m3753 8 c0 -3 -4
-8 -10 -11 -5 -3 -10 -1 -10 4 0 6 5 11 10 11 6 0 10 -2 10 -4z m-3724 -51
c-1 -8 -5 -17 -8 -21 -5 -4 -4 16 1 34 3 9 9 -1 7 -13z m3734 9 c0 -8 -19 -13
-24 -6 -3 5 1 9 9 9 8 0 15 -2 15 -3z m-3665 -24 c3 -6 -1 -7 -9 -4 -18 7 -21
14 -7 14 6 0 13 -4 16 -10z m-102 -17 c-5 -12 -3 -14 7 -8 9 6 11 4 5 -4 -5
-9 -11 -9 -17 -3 -6 6 -7 15 -4 21 11 17 16 13 9 -6z m151 -1 c2 -4 -5 -9 -17
-9 -17 -2 -19 0 -7 7 18 12 18 12 24 2z m4313 -413 c-18 -10 -18 -12 0 -32 18
-21 18 -21 -2 -7 -11 8 -22 16 -24 17 -7 5 21 33 33 33 6 0 3 -5 -7 -11z m-47
-104 c0 -7 -30 -13 -34 -7 -3 4 4 9 15 9 10 1 19 0 19 -2z m-4940 -39 c0 -3
-4 -8 -10 -11 -5 -3 -10 -1 -10 4 0 6 5 11 10 11 6 0 10 -2 10 -4z m4960 -6
c0 -5 -5 -10 -11 -10 -5 0 -7 5 -4 10 3 6 8 10 11 10 2 0 4 -4 4 -10z m-5044
-36 c1 -9 0 -13 -4 -10 -3 4 -7 14 -8 22 -1 9 0 13 4 10 3 -4 7 -14 8 -22z
m121 7 c0 -11 -5 -18 -9 -15 -4 3 -5 11 -1 19 7 21 12 19 10 -4z m4899 -53 c3
-4 -1 -5 -10 -4 -8 1 -18 5 -22 8 -3 4 1 5 10 4 8 -1 18 -5 22 -8z m-4976
-3592 c0 -3 -4 -8 -10 -11 -5 -3 -10 -1 -10 4 0 6 5 11 10 11 6 0 10 -2 10 -4z
m4960 0 c0 -3 -4 -8 -10 -11 -5 -3 -10 -1 -10 4 0 6 5 11 10 11 6 0 10 -2 10
-4z m35 -5 c3 -5 2 -12 -3 -15 -5 -3 -9 1 -9 9 0 17 3 19 12 6z m-4985 -37 c0
-8 -19 -13 -24 -6 -3 5 1 9 9 9 8 0 15 -2 15 -3z m74 -2 c3 -5 -1 -9 -9 -9 -8
0 -12 4 -9 9 3 4 7 8 9 8 2 0 6 -4 9 -8z m576 -557 c0 -7 -30 -13 -34 -7 -3 4
4 9 15 9 10 1 19 0 19 -2z m3696 -10 c-1 -8 -5 -17 -8 -21 -5 -4 -4 16 1 34 3
9 9 -1 7 -13z m-3676 -35 c0 -5 -5 -10 -11 -10 -5 0 -7 5 -4 10 3 6 8 10 11
10 2 0 4 -4 4 -10z m3594 2 c3 -5 -1 -9 -9 -9 -8 0 -12 4 -9 9 3 4 7 8 9 8 2
0 6 -4 9 -8z m106 -37 c0 -7 -30 -13 -34 -7 -3 4 4 9 15 9 10 1 19 0 19 -2z
m-3724 -47 c3 -4 -1 -5 -10 -4 -8 1 -18 5 -22 8 -3 4 1 5 10 4 8 -1 18 -5 22
-8z"/>
<path d="M4547 5107 c3 -4 11 -6 18 -3 7 2 16 -2 19 -10 3 -9 11 -12 17 -8 8
4 7 9 -2 15 -8 5 -9 9 -4 9 6 0 15 -4 22 -8 9 -6 7 -11 -7 -20 -12 -7 -21 -8
-25 -2 -8 13 -35 13 -35 -1 0 -5 4 -8 9 -4 18 11 23 -16 6 -35 -17 -19 -12
-46 6 -34 6 3 21 -4 35 -17 13 -12 25 -18 25 -13 1 5 2 39 3 75 l2 66 -47 -1
c-27 0 -45 -4 -42 -9z m76 -44 c-7 -2 -9 -11 -6 -20 4 -11 2 -14 -8 -11 -8 3
-23 -2 -34 -11 l-20 -16 20 25 c26 32 49 50 55 43 3 -3 0 -8 -7 -10z m4 -60
c0 -8 -6 -9 -19 -2 -10 5 -18 11 -18 12 0 2 8 3 18 3 10 0 19 -6 19 -13z"/>
<path d="M4525 5091 c-3 -5 -1 -12 4 -16 5 -3 9 -14 8 -25 -1 -13 -5 -16 -11
-10 -16 16 -23 12 -21 -12 1 -13 3 -29 4 -35 2 -24 17 -13 30 22 7 19 17 35
22 35 5 0 9 5 9 10 0 6 -6 9 -12 8 -7 -2 -12 5 -12 15 2 18 -11 23 -21 8z"/>
<path d="M558 5071 c13 -13 21 -28 19 -34 -2 -7 3 -18 12 -25 9 -8 10 -11 3
-7 -7 4 -21 1 -30 -7 -15 -12 -16 -11 -3 5 8 10 9 17 3 17 -17 0 -25 -21 -14
-32 8 -8 16 -7 27 2 13 11 15 10 9 -6 -5 -15 -4 -16 5 -8 21 20 20 62 -3 82
-31 28 -55 39 -28 13z"/>
<path d="M550 5040 c0 -5 5 -10 10 -10 6 0 10 5 10 10 0 6 -4 10 -10 10 -5 0
-10 -4 -10 -10z"/>
<path d="M510 5005 c0 -8 5 -15 10 -15 6 0 10 7 10 15 0 8 -4 15 -10 15 -5 0
-10 -7 -10 -15z"/>
<path d="M230 4956 c0 -2 8 -10 18 -17 15 -13 16 -12 3 4 -13 16 -21 21 -21
13z"/>
<path d="M4837 4928 c19 -21 31 -25 14 -5 -6 8 -9 16 -6 19 3 2 -2 5 -10 5
-13 0 -13 -3 2 -19z"/>
<path d="M4870 4935 c5 -7 6 -16 2 -21 -4 -5 -3 -6 2 -2 5 4 16 2 25 -4 12
-10 12 -7 -2 8 -9 11 -15 23 -12 26 3 2 -2 5 -10 5 -10 0 -12 -4 -5 -12z"/>
<path d="M4917 4928 c19 -21 31 -25 14 -5 -6 8 -9 16 -6 19 3 2 -2 5 -10 5
-13 0 -13 -3 2 -19z"/>
<path d="M223 4924 c9 -11 14 -23 11 -26 -3 -3 -1 -8 4 -12 18 -11 8 25 -12
41 -21 18 -21 18 -3 -3z"/>
<path d="M284 4922 c23 -26 23 -26 23 -7 0 8 -3 13 -5 10 -3 -3 -12 1 -21 7
-10 8 -9 4 3 -10z"/>
<path d="M189 4917 c6 -8 9 -16 6 -19 -3 -2 2 -5 10 -5 13 0 13 3 -2 19 -19
21 -31 25 -14 5z"/>
<path d="M268 4899 c6 -9 8 -20 4 -25 -4 -5 -3 -6 2 -2 5 4 14 3 21 -2 8 -7
12 -5 12 5 0 8 -3 13 -5 10 -3 -3 -15 3 -26 12 -15 14 -18 14 -8 2z"/>
<path d="M4854 4886 c1 -8 5 -18 8 -22 4 -3 5 1 4 10 -1 8 -5 18 -8 22 -4 3
-5 -1 -4 -10z"/>
<path d="M4930 4896 c0 -2 8 -10 18 -17 15 -13 16 -12 3 4 -13 16 -21 21 -21
13z"/>
<path d="M4886 4878 c4 -5 9 -7 12 -4 3 3 15 -2 26 -11 21 -18 21 -18 3 3 -16
20 -52 30 -41 12z"/>
<path d="M197 4848 c19 -21 31 -25 14 -5 -6 8 -9 16 -6 19 3 2 -2 5 -10 5 -13
0 -13 -3 2 -19z"/>
<path d="M224 4862 c4 -3 14 -7 22 -8 9 -1 13 0 10 4 -4 3 -14 7 -22 8 -9 1
-13 0 -10 -4z"/>
<path d="M284 4842 c23 -26 23 -26 23 -7 0 8 -3 13 -5 10 -3 -3 -12 1 -21 7
-10 8 -9 4 3 -10z"/>
<path d="M4844 4842 c23 -26 23 -26 23 -7 0 8 -3 13 -5 10 -3 -3 -12 1 -21 7
-10 8 -9 4 3 -10z"/>
<path d="M4893 4845 c0 -8 3 -13 5 -10 3 3 12 -1 21 -7 10 -8 9 -4 -3 10 -23
26 -23 26 -23 7z"/>
<path d="M160 4846 c0 -2 8 -10 18 -17 15 -13 16 -12 3 4 -13 16 -21 21 -21
13z"/>
<path d="M4820 4826 c0 -2 8 -10 18 -17 15 -13 16 -12 3 4 -13 16 -21 21 -21
13z"/>
<path d="M20 4642 c0 -17 18 -24 36 -14 11 6 13 11 5 16 -6 4 -11 2 -11 -5 0
-8 -4 -8 -15 1 -9 8 -15 9 -15 2z"/>
<path d="M3 4571 c1 -57 3 -68 14 -59 7 6 13 7 13 3 0 -3 19 10 42 29 23 20
48 34 55 32 14 -6 15 -4 17 35 2 22 -2 26 -29 25 -16 -1 -40 -7 -53 -14 -20
-12 -26 -11 -41 2 -17 16 -18 13 -18 -53z m114 48 c-9 -6 -17 -15 -17 -21 0
-7 5 -7 14 1 10 8 16 9 21 1 4 -6 3 -9 -2 -8 -4 1 -18 -3 -30 -10 -13 -7 -23
-9 -23 -5 0 4 -10 -6 -21 -24 -13 -21 -25 -30 -36 -26 -12 5 -10 9 11 20 25
13 28 33 5 33 -6 0 -7 -5 -3 -12 4 -6 3 -8 -4 -4 -5 3 -12 0 -14 -6 -3 -7 -5
2 -5 20 0 17 4 32 9 32 5 0 6 -4 3 -10 -3 -5 0 -10 9 -10 8 0 16 3 19 8 2 4 2
2 1 -5 -2 -6 6 -11 17 -10 15 1 19 7 17 22 -3 15 1 20 21 22 21 1 22 0 8 -8z"/>
<path d="M4983 4591 c-12 -33 -8 -41 17 -41 12 0 17 7 15 23 -1 12 -3 28 -4
35 -2 22 -16 13 -28 -17z"/>
<path d="M5063 4605 c4 -5 -4 -16 -19 -25 -14 -10 -25 -20 -25 -24 3 -20 -1
-25 -13 -20 -8 3 -19 -3 -25 -14 -8 -16 -7 -21 5 -26 20 -8 39 4 39 24 0 8 6
14 13 12 8 -1 11 2 7 8 -4 7 3 22 15 35 17 18 19 25 8 31 -7 4 -10 3 -5 -1z
m-56 -90 c0 -8 -4 -12 -9 -9 -5 3 -6 10 -3 15 9 13 12 11 12 -6z"/>
<path d="M104 4522 c6 -9 3 -12 -9 -10 -10 2 -20 -2 -22 -8 -2 -6 10 -10 27
-10 34 0 38 7 13 27 -13 11 -15 11 -9 1z"/>
<path d="M4 590 c0 -27 4 -46 9 -43 4 3 6 11 3 18 -2 7 2 16 10 19 9 3 12 11
8 17 -4 8 -9 7 -16 -2 -7 -10 -8 -8 -3 8 3 12 2 24 -3 27 -5 3 -9 -17 -8 -44z"/>
<path d="M30 622 c0 -6 4 -13 9 -16 9 -6 -14 -64 -29 -76 -10 -9 -5 -43 8 -47
6 -3 12 0 12 6 0 6 5 11 11 11 5 0 8 -4 5 -9 -3 -5 6 -8 19 -8 14 0 25 3 25 8
0 5 -3 8 -7 8 -27 -4 -35 1 -23 16 14 17 0 21 -17 4 -8 -8 -13 -7 -18 2 -5 7
-4 10 3 5 6 -3 13 -2 17 4 3 5 0 10 -7 10 -10 0 -10 2 0 9 8 4 13 12 12 17 -1
5 4 10 12 12 8 2 9 0 3 -5 -24 -20 -13 -40 20 -33 6 1 4 -4 -2 -11 -19 -19
-16 -27 10 -24 12 1 28 3 35 4 23 2 12 17 -23 30 -29 10 -35 17 -30 32 4 11 2
19 -4 19 -6 0 -11 5 -11 11 0 5 4 8 9 5 5 -3 11 0 14 7 3 8 -1 14 -9 14 -8 0
-14 -5 -14 -10 0 -5 -7 -4 -15 3 -9 8 -15 9 -15 2z"/>
<path d="M119 608 c-12 -23 -12 -23 10 -4 23 21 26 26 11 26 -5 0 -15 -10 -21
-22z"/>
<path d="M4989 608 c-1 -7 -3 -23 -4 -35 -2 -25 5 -29 21 -13 6 6 10 3 11 -10
1 -11 -3 -22 -8 -25 -5 -4 -7 -11 -4 -16 10 -15 23 -10 21 9 0 9 5 16 12 15 6
-2 12 2 12 7 0 6 -4 10 -9 10 -5 0 -15 16 -22 35 -13 35 -28 46 -30 23z"/>
<path d="M4913 294 c16 -20 52 -30 41 -12 -4 5 -9 7 -12 4 -3 -3 -15 2 -26 11
-21 18 -21 18 -3 -3z"/>
<path d="M223 284 c9 -11 14 -23 11 -26 -3 -3 -1 -8 4 -12 18 -11 8 25 -12 41
-21 18 -21 18 -3 -3z"/>
<path d="M284 282 c23 -26 23 -26 23 -7 0 8 -3 13 -5 10 -3 -3 -12 1 -21 7
-10 8 -9 4 3 -10z"/>
<path d="M189 277 c6 -8 9 -16 6 -19 -3 -2 2 -5 10 -5 13 0 13 3 -2 19 -19 21
-31 25 -14 5z"/>
<path d="M268 259 c6 -9 8 -20 4 -25 -4 -5 -3 -6 2 -2 5 4 14 3 21 -2 8 -7 12
-5 12 5 0 8 -3 13 -5 10 -3 -3 -15 3 -26 12 -15 14 -18 14 -8 2z"/>
<path d="M4823 244 c9 -11 15 -23 12 -26 -3 -3 5 -13 17 -24 23 -19 23 -19 5
2 -9 11 -15 23 -12 26 3 3 -5 13 -17 24 -23 19 -23 19 -5 -2z"/>
<path d="M4913 225 c0 -8 10 -23 21 -32 21 -18 21 -18 4 2 -9 11 -17 24 -16
28 0 5 -2 11 -4 13 -3 2 -5 -3 -5 -11z"/>
<path d="M197 208 c19 -21 31 -25 14 -5 -6 8 -9 16 -6 19 3 2 -2 5 -10 5 -13
0 -13 -3 2 -19z"/>
<path d="M224 222 c4 -3 14 -7 22 -8 9 -1 13 0 10 4 -4 3 -14 7 -22 8 -9 1
-13 0 -10 -4z"/>
<path d="M4864 222 c4 -3 14 -7 22 -8 9 -1 13 0 10 4 -4 3 -14 7 -22 8 -9 1
-13 0 -10 -4z"/>
<path d="M284 202 c23 -26 23 -26 23 -7 0 8 -3 13 -5 10 -3 -3 -12 1 -21 7
-10 8 -9 4 3 -10z"/>
<path d="M160 206 c0 -2 8 -10 18 -17 15 -13 16 -12 3 4 -13 16 -21 21 -21 13z"/>
<path d="M260 186 c0 -2 8 -10 18 -17 15 -13 16 -12 3 4 -13 16 -21 21 -21 13z"/>
<path d="M550 140 c0 -15 14 -19 27 -8 11 9 12 7 6 -8 -6 -17 -5 -17 10 -5 25
20 21 27 -13 27 -16 0 -30 -3 -30 -6z"/>
<path d="M4604 129 l-19 -22 25 12 c23 11 24 11 6 -3 -13 -11 -24 -12 -37 -6
-19 10 -35 -2 -25 -19 6 -9 48 -7 64 3 5 3 9 -1 9 -8 0 -8 -7 -12 -16 -9 -12
3 -11 0 3 -11 11 -9 17 -18 15 -21 -3 -3 -15 4 -27 15 -26 25 -30 25 -28 3 0
-10 -5 -17 -11 -15 -7 1 -13 -2 -13 -8 0 -13 27 -13 35 0 4 6 13 5 25 -2 14
-9 16 -14 7 -20 -7 -4 -16 -8 -22 -8 -5 0 -4 4 4 9 9 6 10 11 2 15 -6 4 -14 1
-17 -8 -3 -8 -12 -12 -19 -10 -7 3 -16 1 -19 -4 -3 -5 18 -8 47 -8 29 1 51 4
50 9 -2 4 -3 8 -4 10 0 1 -2 28 -3 59 -1 31 -4 59 -7 63 -3 3 -14 -5 -25 -16z"/>
<path d="M4509 128 c-1 -7 -3 -23 -4 -35 -2 -25 5 -29 21 -13 6 6 10 3 11 -10
1 -11 -3 -22 -8 -25 -5 -4 -7 -11 -4 -16 10 -15 23 -10 21 9 0 9 5 16 12 15 6
-2 12 2 12 7 0 6 -4 10 -9 10 -5 0 -15 16 -22 35 -13 35 -28 46 -30 23z"/>
<path d="M514 107 c-4 -6 -3 -9 1 -4 5 4 17 -5 27 -20 10 -16 18 -24 18 -19 0
4 11 1 24 -7 23 -15 36 -13 36 5 0 5 -5 6 -11 3 -6 -4 -28 7 -49 24 -28 22
-41 28 -46 18z"/>
<path d="M500 40 c0 -5 7 -10 15 -10 8 0 15 5 15 10 0 6 -7 10 -15 10 -8 0
-15 -4 -15 -10z"/>
</g>
</svg>
